<?xml version="1.0" standalone="no"?>
<!DOCTYPE svg PUBLIC "-//W3C//DTD SVG 20010904//EN"
 "http://www.w3.org/TR/2001/REC-SVG-20010904/DTD/svg10.dtd">
<svg version="1.0" xmlns="http://www.w3.org/2000/svg"
 width="300.000000pt" height="214.000000pt" viewBox="0 0 300.000000 214.000000"
 preserveAspectRatio="xMidYMid meet">
<metadata>
Created by potrace 1.10, written by Peter Selinger 2001-2011
</metadata>
<g transform="translate(0.000000,214.000000) scale(0.100000,-0.100000)"
fill="#000000" stroke="none">
<path d="M1520 1801 c0 -156 4 -252 10 -256 7 -4 10 82 10 249 0 164 -4 256
-10 256 -6 0 -10 -90 -10 -249z"/>
<path d="M1998 1768 c-22 -40 -88 -202 -88 -218 0 -27 19 5 69 120 28 63 51
115 51 117 0 12 -22 -1 -32 -19z"/>
<path d="M590 1755 c0 -9 66 -101 130 -181 36 -45 87 -111 113 -148 27 -36 52
-66 58 -66 16 0 10 26 -12 46 -12 10 -35 39 -52 64 -17 25 -63 86 -102 135
-39 50 -80 105 -90 123 -11 17 -25 32 -32 32 -7 0 -13 -2 -13 -5z"/>
<path d="M1110 1739 c0 -6 16 -50 36 -97 20 -48 40 -98 45 -111 7 -18 13 -21
21 -13 8 8 8 15 1 24 -5 7 -27 57 -47 111 -21 53 -42 97 -47 97 -5 0 -9 -5 -9
-11z"/>
<path d="M2509 1650 c-46 -39 -122 -103 -169 -143 -46 -40 -101 -84 -122 -100
-35 -25 -49 -47 -30 -47 5 0 66 48 136 108 71 59 141 116 156 127 57 42 130
107 130 116 0 19 -19 7 -101 -61z"/>
<path d="M1360 1414 c-315 -56 -588 -252 -724 -521 -52 -104 -98 -253 -108
-353 l-3 -25 -178 -3 c-136 -2 -178 -5 -174 -15 6 -19 2732 -18 2732 2 0 11
-38 13 -207 12 l-207 -2 -5 23 c-33 173 -52 243 -86 313 -133 276 -347 457
-650 550 -54 17 -328 30 -390 19z m286 -34 c97 -16 205 -55 317 -116 84 -45
121 -73 197 -148 51 -51 105 -113 119 -138 14 -24 38 -64 53 -89 15 -24 39
-76 54 -114 28 -76 66 -243 58 -257 -7 -11 -1871 -10 -1878 1 -14 22 42 239
87 339 45 101 192 276 291 347 112 79 276 150 406 174 64 12 224 13 296 1z"/>
<path d="M1260 1088 c0 -20 4 -38 10 -40 5 -1 -27 -44 -71 -95 -43 -51 -85
-90 -92 -88 -8 4 -11 31 -10 93 l2 87 46 3 c44 3 45 4 45 38 l0 34 -131 0
-130 0 3 -32 c3 -31 5 -33 43 -33 l40 0 6 -200 c3 -110 4 -203 2 -207 -2 -5
-22 -8 -44 -8 -37 0 -39 -2 -39 -30 l0 -30 120 0 120 0 0 35 c0 34 -1 34 -37
32 l-38 -2 -3 55 c-3 51 0 58 31 88 l34 33 31 -48 c17 -26 53 -79 80 -118 l49
-70 87 -3 87 -3 -3 33 c-3 32 -3 32 -55 29 -47 -2 -53 0 -70 26 -9 15 -40 57
-69 93 -86 109 -84 101 -35 156 23 26 54 67 69 91 27 42 28 42 85 43 l58 0 -3
36 -3 35 -108 2 -107 2 0 -37z m150 3 c36 -7 39 -9 15 -10 -56 -2 -74 -13
-117 -70 -23 -31 -50 -65 -60 -75 -10 -11 -18 -23 -18 -28 0 -4 -6 -8 -13 -8
-28 0 -14 -46 33 -112 28 -37 50 -70 50 -73 0 -5 16 -25 60 -74 l28 -31 -24 0
c-16 0 -28 8 -36 25 -6 14 -15 25 -20 25 -4 0 -8 5 -8 11 0 6 -10 24 -22 39
-13 15 -39 51 -58 79 -19 27 -41 50 -48 51 -23 0 -69 -31 -86 -60 -23 -41 -21
-125 4 -150 20 -20 20 -20 -31 -20 -50 0 -51 0 -29 18 21 17 21 24 21 211 0
156 -3 198 -16 217 -8 13 -15 26 -15 29 0 3 26 5 58 4 49 0 53 -2 30 -10 -34
-13 -39 -28 -39 -123 0 -81 15 -116 49 -116 14 0 112 83 102 87 -3 0 9 17 26
35 43 48 56 73 48 102 -8 34 27 42 116 27z"/>
<path d="M1665 1093 c-48 -48 -57 -69 -57 -133 0 -50 5 -68 28 -101 15 -22 35
-44 45 -50 10 -5 70 -9 135 -9 99 0 119 -3 130 -17 22 -29 17 -78 -12 -112
-26 -31 -26 -31 -128 -31 -126 0 -146 10 -146 76 0 44 0 44 -35 44 l-35 0 0
-95 0 -95 179 0 c168 0 180 1 206 22 37 29 65 93 65 148 0 99 -47 133 -180
131 -113 -2 -132 3 -154 41 -20 33 -17 72 10 113 15 24 21 25 108 25 84 0 95
-2 114 -23 15 -16 22 -36 22 -65 0 -41 1 -42 35 -42 l35 0 0 100 0 100 -169 0
-168 0 -28 -27z m327 -6 c4 -6 7 -41 7 -77 -1 -55 -2 -60 -9 -31 -11 47 -41
83 -76 93 -16 4 -65 6 -109 4 -76 -3 -80 -5 -107 -37 -51 -61 -47 -110 15
-172 18 -18 33 -21 122 -23 55 0 111 -6 125 -11 42 -17 67 -86 48 -132 -6 -14
-12 -28 -13 -31 -5 -23 -31 -53 -52 -61 -38 -14 -40 -3 -6 25 41 35 55 73 46
120 -14 64 -39 75 -175 78 -64 1 -115 4 -113 7 3 2 -4 10 -14 17 -55 39 -60
154 -10 202 27 25 36 27 141 32 62 3 126 6 143 7 16 2 33 -3 37 -10z m-312
-462 c40 -21 38 -26 -9 -23 -22 1 -38 5 -35 10 3 4 1 8 -3 8 -5 0 -10 17 -11
38 l-2 37 15 -27 c9 -15 29 -35 45 -43z"/>
<path d="M460 1381 c0 -13 182 -162 189 -155 3 3 -32 42 -79 85 -78 72 -110
93 -110 70z"/>
<path d="M2520 1274 c-52 -35 -96 -69 -98 -74 -6 -17 18 -11 46 10 15 12 56
40 91 63 58 37 87 68 64 66 -4 0 -51 -29 -103 -65z"/>
<path d="M180 1137 c0 -7 46 -35 102 -62 56 -28 126 -65 156 -83 33 -19 59
-29 64 -24 10 10 -109 84 -154 97 -13 4 -33 13 -45 21 -38 24 -112 64 -117 64
-3 0 -6 -6 -6 -13z"/>
<path d="M2845 1099 c-27 -11 -72 -26 -100 -34 -75 -20 -249 -85 -259 -95 -20
-20 21 -9 184 46 245 83 250 85 250 95 0 13 -19 10 -75 -12z"/>
<path d="M180 760 c0 -5 12 -12 28 -15 15 -4 45 -10 67 -15 22 -5 57 -12 78
-15 21 -3 45 -9 54 -12 10 -4 14 -2 11 7 -2 7 -47 23 -104 36 -112 26 -134 28
-134 14z"/>
<path d="M2590 710 c0 -6 43 -10 109 -10 63 0 112 4 116 10 4 6 -35 10 -109
10 -71 0 -116 -4 -116 -10z"/>
<path d="M360 355 c0 -8 7 -15 15 -15 12 0 15 -15 15 -75 0 -60 -3 -75 -15
-75 -8 0 -15 -7 -15 -15 0 -11 12 -15 50 -15 48 0 67 14 35 26 -16 7 -21 54
-6 54 5 0 13 -9 16 -20 3 -11 11 -20 16 -20 5 0 9 -9 9 -20 0 -19 7 -20 130
-20 l130 0 0 40 c0 42 -18 55 -27 19 -6 -23 -45 -42 -68 -33 -21 8 -20 64 1
64 9 0 18 -9 21 -20 10 -37 23 -20 23 30 0 48 -12 66 -24 35 -10 -28 -36 -17
-36 15 0 28 3 30 36 30 27 0 37 -5 41 -20 3 -11 12 -20 19 -20 15 0 17 12 8
48 -6 21 -10 22 -130 22 -105 0 -124 -2 -124 -15 0 -19 -29 -65 -41 -65 -15 0
-10 48 6 54 32 12 13 26 -35 26 -38 0 -50 -4 -50 -15z m228 -92 c-3 -76 -3
-78 -28 -75 -24 2 -90 66 -90 86 0 6 12 23 27 38 19 20 37 28 60 28 l34 0 -3
-77z"/>
<path d="M750 356 c0 -9 7 -16 15 -16 12 0 15 -15 15 -75 0 -58 -4 -77 -15
-81 -28 -11 -15 -24 25 -24 38 0 52 12 30 25 -5 3 -10 32 -10 63 l0 56 51 -77
c28 -43 56 -76 62 -74 8 2 13 36 15 93 2 66 7 91 18 97 24 13 6 27 -37 27 -28
0 -39 -4 -39 -15 0 -8 7 -15 15 -15 11 0 15 -12 15 -47 0 -54 -4 -52 -53 23
-28 42 -37 49 -70 52 -28 2 -37 0 -37 -12z"/>
<path d="M1013 362 c-16 -10 -43 -75 -43 -103 0 -34 31 -90 56 -100 13 -4 60
-6 104 -2 l81 6 -6 29 c-6 26 -4 28 23 28 30 0 51 -24 32 -35 -27 -17 -2 -25
75 -25 84 0 99 6 70 30 -17 14 -22 110 -6 110 5 0 23 -24 40 -52 53 -91 54
-92 118 -89 66 3 71 5 54 25 -17 20 -6 36 24 36 28 0 42 -17 26 -33 -21 -21
-11 -27 39 -27 38 0 50 4 50 15 0 8 -6 15 -14 15 -9 0 -24 29 -40 78 -15 42
-30 83 -35 91 -16 25 -36 4 -60 -65 -47 -137 -71 -149 -71 -34 0 47 4 80 10
80 6 0 10 7 10 15 0 11 -11 15 -40 15 -29 0 -40 -4 -40 -15 0 -8 7 -15 15 -15
11 0 15 -12 15 -45 0 -25 -3 -45 -7 -45 -5 0 -24 27 -43 60 -33 56 -37 60 -72
60 -39 0 -54 -22 -23 -33 21 -9 20 -146 -1 -154 -23 -9 -39 14 -69 105 -37
106 -52 108 -84 10 -34 -106 -40 -120 -51 -113 -6 3 -10 15 -10 26 0 26 -23
24 -35 -3 -15 -35 -66 -32 -83 5 -21 44 -8 115 24 127 30 12 51 4 59 -21 7
-21 35 -26 35 -6 -1 47 -11 57 -64 57 -28 0 -56 -4 -63 -8z"/>
<path d="M1837 352 c-34 -37 -17 -80 43 -110 43 -21 49 -57 10 -57 -16 0 -28
8 -35 23 -15 34 -35 27 -35 -13 0 -31 3 -35 35 -41 102 -19 145 80 55 126 -48
25 -58 40 -36 56 22 16 42 9 49 -17 9 -32 29 -22 25 14 -3 30 -5 32 -49 35
-34 2 -49 -2 -62 -16z"/>
<path d="M1965 361 c-3 -6 2 -14 11 -19 14 -8 17 -22 15 -76 -2 -58 0 -68 23
-91 33 -33 79 -33 111 0 22 21 25 33 25 95 0 68 1 70 25 70 24 0 25 -2 25 -75
0 -58 -4 -77 -15 -81 -31 -12 -13 -24 35 -24 44 0 67 12 41 22 -5 2 -11 16
-13 33 -2 21 2 31 14 33 12 2 18 -7 23 -38 5 -30 14 -44 31 -52 32 -15 59 6
33 25 -21 16 -34 84 -19 102 18 22 8 58 -20 72 -15 8 -64 13 -122 13 -81 0
-98 -3 -98 -15 0 -8 7 -15 15 -15 12 0 15 -14 15 -63 0 -73 -15 -101 -51 -95
-23 3 -24 7 -27 81 -2 64 0 77 13 77 8 0 15 7 15 15 0 11 -12 15 -49 15 -28 0
-52 -4 -56 -9z m323 -48 c-2 -17 -10 -29 -20 -31 -14 -3 -18 3 -18 27 0 25 4
31 21 31 16 0 20 -5 17 -27z"/>
<path d="M2350 356 c0 -9 6 -16 14 -16 18 0 56 -61 66 -106 7 -28 5 -36 -11
-45 -33 -17 -21 -29 30 -29 52 0 79 17 42 27 -15 4 -21 13 -21 35 0 34 54 118
75 118 8 0 15 7 15 15 0 11 -12 15 -45 15 -45 0 -54 -7 -35 -26 8 -8 5 -18 -9
-35 l-19 -24 -7 26 c-3 14 -5 32 -3 40 2 10 -9 15 -44 17 -38 2 -48 0 -48 -12z"/>
<path d="M2599 281 c-22 -60 -39 -91 -51 -94 -35 -10 -18 -27 27 -27 46 0 54
7 34 27 -16 16 -2 33 26 33 24 0 41 -25 25 -35 -23 -14 -6 -25 40 -25 36 0 50
4 50 14 0 7 -9 16 -19 19 -14 3 -27 29 -47 91 -15 47 -33 86 -40 86 -6 0 -27
-40 -45 -89z"/>
</g>
</svg>
