<?xml version="1.0" standalone="no"?>
<!DOCTYPE svg PUBLIC "-//W3C//DTD SVG 20010904//EN"
 "http://www.w3.org/TR/2001/REC-SVG-20010904/DTD/svg10.dtd">
<svg version="1.0" xmlns="http://www.w3.org/2000/svg"
 width="307.000000pt" height="219.000000pt" viewBox="0 0 307.000000 219.000000"
 preserveAspectRatio="xMidYMid meet">

<g transform="translate(0.000000,219.000000) scale(0.100000,-0.100000)"
fill="#000000" stroke="none">
<path d="M1290 1116 c0 -19 5 -38 10 -41 7 -4 -4 -24 -27 -49 -21 -24 -57 -66
-81 -94 -60 -72 -72 -64 -72 49 l0 89 44 0 c51 0 56 4 49 43 l-5 27 -130 0
-129 0 3 -27 c3 -25 8 -28 44 -31 l41 -3 7 -52 c3 -29 6 -123 6 -209 l0 -158
-45 0 c-45 0 -45 0 -45 -35 l0 -35 125 0 125 0 0 34 c0 34 -1 35 -42 38 l-43
3 1 57 c1 34 7 62 16 70 56 52 57 53 67 27 5 -13 32 -55 60 -93 28 -38 61 -84
72 -103 l21 -33 84 0 84 0 0 35 0 35 -55 0 c-51 0 -56 2 -77 34 -13 18 -50 68
-82 111 -42 54 -57 81 -50 89 5 7 36 49 69 94 l60 81 58 0 57 1 0 40 0 40
-110 0 -110 0 0 -34z"/>
<path d="M1702 1115 c-77 -69 -81 -182 -8 -260 l33 -35 126 0 c115 0 127 -2
137 -19 19 -36 12 -96 -13 -119 -21 -20 -34 -22 -131 -22 -133 0 -146 6 -146
65 0 45 0 45 -35 45 l-35 0 0 -90 0 -90 188 0 188 0 27 28 c48 50 68 137 47
198 -20 56 -52 68 -183 74 -115 5 -120 6 -143 33 -29 35 -30 69 -3 113 l21 34
97 0 c114 0 128 -8 133 -80 3 -44 4 -45 38 -45 l35 0 3 103 3 102 -171 0 -170
0 -38 -35z"/>
<path d="M370 366 c0 -8 7 -16 15 -20 11 -4 15 -22 15 -76 0 -54 -4 -72 -15
-76 -8 -4 -15 -12 -15 -20 0 -10 13 -14 44 -14 49 0 64 11 41 30 -16 13 -21
50 -6 50 12 0 41 -46 41 -65 0 -13 18 -15 133 -13 l132 3 3 38 c4 42 -17 52
-33 15 -7 -16 -20 -24 -42 -26 -31 -3 -33 -1 -33 27 0 21 5 31 15 31 8 0 15
-7 15 -15 0 -8 7 -15 15 -15 11 0 15 12 15 50 0 38 -4 50 -15 50 -8 0 -15 -7
-15 -15 0 -8 -7 -15 -15 -15 -10 0 -15 10 -15 30 0 27 3 30 30 30 23 0 33 -6
42 -25 17 -37 30 -30 26 13 l-3 37 -122 2 -121 2 -19 -36 c-11 -20 -25 -39
-31 -41 -18 -6 -14 36 4 46 28 15 6 32 -42 32 -31 0 -44 -4 -44 -14z m235 -96
c0 -71 -1 -75 -24 -78 -24 -4 -72 34 -93 72 -15 28 46 88 87 84 l30 -3 0 -75z"/>
<path d="M770 366 c0 -8 7 -16 15 -20 22 -8 22 -144 0 -152 -29 -12 -16 -34
19 -34 34 0 61 20 38 28 -7 2 -12 26 -12 59 l0 56 50 -71 c70 -99 80 -96 80
23 0 80 3 95 16 95 35 0 4 25 -34 28 -33 2 -42 0 -42 -12 0 -9 7 -16 15 -16
11 0 15 -12 15 -45 0 -25 -2 -45 -5 -45 -2 0 -23 27 -45 60 -37 54 -44 60 -75
60 -23 0 -35 -5 -35 -14z"/>
<path d="M1031 361 c-44 -44 -46 -145 -4 -183 20 -18 38 -21 141 -19 57 1 72
4 72 16 0 8 -4 15 -10 15 -5 0 -7 7 -4 15 7 18 60 20 70 3 4 -6 2 -14 -4 -16
-7 -2 -12 -10 -12 -18 0 -11 18 -14 85 -14 69 0 85 3 85 15 0 8 -4 15 -10 15
-6 0 -10 27 -10 63 l0 62 50 -76 49 -75 60 -2 c56 -2 84 9 61 23 -22 13 -10
35 19 35 30 0 54 -21 33 -28 -7 -2 -12 -10 -12 -18 0 -10 14 -14 50 -14 38 0
50 4 50 15 0 8 -6 15 -13 15 -8 0 -27 39 -47 95 -23 69 -37 95 -47 93 -9 -2
-30 -42 -49 -92 -49 -131 -74 -139 -74 -24 0 52 4 76 16 90 15 16 15 18 1 24
-24 9 -70 1 -75 -13 -2 -7 3 -13 12 -13 12 0 16 -11 16 -45 0 -25 -2 -45 -4
-45 -2 0 -19 24 -37 53 -39 61 -46 67 -80 67 -35 0 -42 -10 -24 -31 12 -12 15
-34 13 -85 -3 -62 -5 -69 -24 -72 -19 -3 -26 9 -56 90 -21 58 -39 93 -48 93
-13 0 -41 -63 -66 -149 -11 -36 -33 -45 -41 -17 -7 26 -15 27 -31 1 -14 -22
-61 -27 -80 -8 -15 15 -16 102 -2 129 15 27 70 26 77 -1 9 -35 35 -24 31 13
-3 31 -4 32 -55 35 -41 2 -56 -1 -72 -17z m235 -98 c-10 -10 -19 5 -10 18 6
11 8 11 12 0 2 -7 1 -15 -2 -18z m418 12 c3 -9 0 -15 -9 -15 -9 0 -12 6 -9 15
4 8 7 15 9 15 2 0 5 -7 9 -15z"/>
<path d="M1889 370 c-22 -13 -32 -56 -19 -80 6 -11 29 -29 50 -40 25 -13 40
-27 40 -39 0 -37 -54 -37 -65 0 -4 10 -13 19 -21 19 -11 0 -14 -9 -12 -32 3
-29 7 -33 40 -39 73 -12 127 37 99 90 -7 12 -30 30 -51 41 -48 24 -56 60 -14
60 17 0 28 -6 31 -20 3 -11 12 -20 19 -20 20 0 18 56 -2 64 -23 9 -77 7 -95
-4z"/>
<path d="M2017 373 c-12 -11 -8 -23 8 -23 12 0 15 -15 15 -74 0 -94 15 -117
80 -118 64 -1 80 23 80 118 0 72 1 74 25 74 25 0 25 -1 25 -79 0 -62 -3 -80
-16 -85 -28 -11 -4 -26 42 -26 32 0 44 4 44 15 0 8 -4 15 -10 15 -5 0 -10 16
-10 36 0 43 21 42 34 -2 15 -50 22 -59 55 -62 32 -3 42 11 17 25 -8 4 -19 25
-24 47 -9 30 -8 43 4 61 11 16 12 29 5 47 -11 30 -46 38 -168 38 -64 0 -83 -3
-83 -14 0 -8 7 -16 15 -20 11 -4 15 -21 15 -64 0 -68 -15 -95 -51 -90 -23 3
-24 7 -27 77 -2 60 0 76 13 83 8 5 13 13 10 19 -7 10 -88 13 -98 2z m327 -38
c8 -23 -4 -45 -25 -45 -14 0 -19 7 -19 30 0 23 5 30 19 30 10 0 21 -7 25 -15z"/>
<path d="M2407 373 c-12 -11 -8 -23 8 -23 23 0 75 -88 75 -127 0 -23 -5 -33
-15 -33 -8 0 -15 -7 -15 -15 0 -11 12 -15 50 -15 38 0 50 4 50 15 0 8 -7 15
-15 15 -10 0 -15 10 -15 33 0 39 52 127 76 127 8 0 14 6 12 13 -3 7 -21 12
-44 12 -33 0 -39 -3 -37 -20 1 -10 -3 -28 -9 -39 -10 -19 -11 -19 -23 4 -7 13
-10 31 -7 42 4 15 -2 18 -40 18 -25 0 -48 -3 -51 -7z"/>
<path d="M2660 289 c-23 -61 -40 -94 -52 -97 -10 -2 -18 -11 -18 -18 0 -10 13
-14 45 -14 32 0 45 4 45 14 0 8 -5 16 -12 18 -19 7 1 28 27 28 26 0 46 -21 27
-28 -7 -2 -12 -10 -12 -18 0 -10 13 -14 49 -14 51 0 79 17 43 27 -14 3 -29 30
-53 96 -19 50 -39 92 -44 94 -6 2 -26 -38 -45 -88z"/>
</g>
</svg>
